<?xml version="1.0" encoding="iso-8859-1"?>
<!-- Uploaded to: SVG Repo, www.svgrepo.com, Generator: SVG Repo Mixer Tools -->
<svg height="800px" width="800px" version="1.1" id="Layer_1" xmlns="http://www.w3.org/2000/svg" xmlns:xlink="http://www.w3.org/1999/xlink" 
	 viewBox="0 0 512 512" xml:space="preserve">
<polygon style="fill:#57565C;" points="235.371,109.669 110.425,234.617 134.014,258.206 235.371,156.849 "/>
<g>
	<polygon style="fill:#2D2E30;" points="277.52,110.478 277.52,157.657 378.068,258.206 401.658,234.617 	"/>
	<path style="fill:#2D2E30;" d="M244.009,351.302L109.548,216.841c-6.513-6.513-17.075-6.513-23.59,0l-36.958,36.958
		c-6.514,6.513-6.514,17.075,0,23.59L183.462,411.85c3.257,3.257,7.526,4.886,11.794,4.886s8.538-1.629,11.794-4.886l36.958-36.958
		C250.525,368.379,250.525,357.817,244.009,351.302z"/>
</g>
<g>
	<path style="fill:#C6C5CA;" d="M70.231,315.299c-4.269,0-8.538-1.629-11.794-4.886c-6.514-6.513-6.514-17.075,0-23.59
		l60.547-60.547c6.513-6.513,17.075-6.513,23.59,0s6.514,17.075,0,23.59l-60.547,60.547C78.769,313.67,74.5,315.299,70.231,315.299z
		"/>
	<path style="fill:#C6C5CA;" d="M109.941,355.009c-4.269,0-8.538-1.629-11.794-4.886c-6.514-6.513-6.514-17.075,0-23.59
		l60.547-60.547c6.513-6.513,17.075-6.513,23.59,0s6.514,17.075,0,23.59l-60.547,60.547
		C118.479,353.38,114.21,355.009,109.941,355.009z"/>
	<path style="fill:#C6C5CA;" d="M149.651,394.719c-4.269,0-8.538-1.629-11.794-4.886c-6.514-6.513-6.514-17.075,0-23.59
		l60.547-60.547c6.513-6.513,17.075-6.513,23.59,0c6.514,6.513,6.514,17.075,0,23.59l-60.547,60.547
		C158.188,393.09,153.92,394.719,149.651,394.719z"/>
</g>
<path style="fill:#1D1D1F;" d="M462.999,253.8l-36.958-36.958c-3.128-3.128-7.371-4.886-11.794-4.886
	c-4.424,0-8.667,1.757-11.794,4.886l-134.461,134.46c-6.514,6.513-6.514,17.075,0,23.59l36.956,36.958
	c3.128,3.128,7.371,4.886,11.794,4.886c4.424,0,8.667-1.757,11.794-4.886l134.461-134.461
	C469.513,270.875,469.513,260.313,462.999,253.8z"/>
<g>
	<path style="fill:#8A8A91;" d="M441.769,315.299c-4.269,0-8.538-1.628-11.794-4.886l-60.546-60.547
		c-6.514-6.513-6.514-17.075,0-23.59c6.513-6.514,17.075-6.514,23.59,0l60.546,60.547c6.514,6.513,6.514,17.075,0,23.59
		C450.307,313.67,446.037,315.299,441.769,315.299z"/>
	<path style="fill:#8A8A91;" d="M402.06,355.009c-4.269,0-8.538-1.629-11.794-4.886l-60.547-60.547
		c-6.514-6.513-6.514-17.075,0-23.59c6.513-6.513,17.075-6.513,23.59,0l60.547,60.547c6.514,6.513,6.514,17.075,0,23.59
		C410.599,353.38,406.329,355.009,402.06,355.009z"/>
	<path style="fill:#8A8A91;" d="M362.351,394.719c-4.269,0-8.538-1.629-11.794-4.886l-60.547-60.547
		c-6.514-6.513-6.514-17.075,0-23.59c6.513-6.513,17.075-6.513,23.59,0l60.547,60.547c6.514,6.513,6.514,17.075,0,23.59
		C370.889,393.09,366.62,394.719,362.351,394.719z"/>
</g>
<path style="fill:#3E3E42;" d="M275.183,37.62H236.9c-9.212,0-16.681,7.468-16.681,16.681v58.288
	c0,9.212,7.468,16.681,16.681,16.681h38.283c9.212,0,16.681-7.468,16.681-16.681V54.301C291.864,45.089,284.395,37.62,275.183,37.62
	z"/>
<path style="fill:#1D1D1F;" d="M275.183,37.62h-19.142v91.649h19.142c9.212,0,16.681-7.468,16.681-16.681V54.301
	C291.864,45.089,284.395,37.62,275.183,37.62z"/>
<path style="fill:#C6C5CA;" d="M317.841,49.573l-11.12-37.62C304.626,4.864,298.116,0,290.724,0h-69.366
	c-7.391,0-13.902,4.864-15.997,11.952l-11.12,37.62c-1.491,5.045-0.515,10.498,2.633,14.712c3.149,4.215,8.102,6.696,13.363,6.696
	h91.607c5.26,0,10.214-2.481,13.363-6.696C318.356,60.071,319.332,54.618,317.841,49.573z"/>
<path style="fill:#8A8A91;" d="M317.841,49.573l-11.12-37.62C304.626,4.864,298.116,0,290.724,0h-34.682v70.982h45.803
	c5.26,0,10.214-2.481,13.363-6.696C318.356,60.071,319.332,54.618,317.841,49.573z"/>
<path style="fill:#57565C;" d="M256.042,264.015c-47.521,0-86.183,38.662-86.183,86.183v145.121c0,9.212,7.468,16.681,16.681,16.681
	h139.005c9.212,0,16.681-7.468,16.681-16.681V350.198C342.225,302.677,303.563,264.015,256.042,264.015z"/>
<g>
	<path style="fill:#2D2E30;" d="M256.042,264.015V512h69.503c9.212,0,16.681-7.468,16.681-16.681V350.198
		C342.225,302.677,303.563,264.015,256.042,264.015z"/>
	<circle style="fill:#2D2E30;" cx="256.047" cy="347.768" r="38.805"/>
</g>
<path style="fill:#0E0E0F;" d="M256.042,308.959v77.609c21.431,0,38.805-17.373,38.805-38.805
	C294.846,326.333,277.473,308.959,256.042,308.959z"/>
<path style="fill:#C6C5CA;" d="M297.187,95.908h-81.179c-9.212,0-16.681,7.468-16.681,16.681v44.901
	c0,9.212,7.468,16.681,16.681,16.681h81.179c9.212,0,16.681-7.468,16.681-16.681v-44.901
	C313.868,103.376,306.399,95.908,297.187,95.908z"/>
<path style="fill:#8A8A91;" d="M297.187,95.908h-41.146v78.262h41.146c9.212,0,16.681-7.468,17.885-18.174v-44.901
	C313.868,103.376,306.399,95.908,297.187,95.908z"/>
</svg>