<?xml version="1.0" encoding="utf-8"?>
<!-- Uploaded to: SVG Repo, www.svgrepo.com, Generator: SVG Repo Mixer Tools -->
<svg width="800px" height="800px" viewBox="0 0 1024 1024" class="icon"  version="1.1" xmlns="http://www.w3.org/2000/svg"><path d="M697.6 177.066667l-29.866667 29.866666 100.266667 100.266667V405.333333c0 12.8 8.533333 21.333333 21.333333 21.333334h42.666667c12.8 0 21.333333-8.533333 21.333333-21.333334v-55.466666c0-10.666667-4.266667-21.333333-12.8-29.866667l-142.933333-142.933333z" fill="#42A5F5" /><path d="M704 917.333333H192V192c0-46.933333 38.4-85.333333 85.333333-85.333333h341.333334c46.933333 0 85.333333 38.4 85.333333 85.333333v725.333333z" fill="#FFC107" /><path d="M876.8 576c-21.333333-38.4-44.8-76.8-44.8-149.333333h-42.666667c0 85.333333 25.6 130.133333 51.2 170.666666 19.2 32 34.133333 61.866667 34.133334 106.666667 0 23.466667-19.2 42.666667-42.666667 42.666667s-42.666667-19.2-42.666667-42.666667v-106.666667c0-23.466667-19.2-42.666667-42.666666-42.666666h-42.666667v42.666666h42.666667v106.666667c0 46.933333 38.4 85.333333 85.333333 85.333333s85.333333-38.4 85.333333-85.333333c0-55.466667-21.333333-91.733333-40.533333-128zM106.666667 832h810.666666v85.333333H106.666667z" fill="#607D8B" /><path d="M618.666667 170.666667H277.333333c-12.8 0-21.333333 8.533333-21.333333 21.333333v213.333333c0 12.8 8.533333 21.333333 21.333333 21.333334h341.333334c12.8 0 21.333333-8.533333 21.333333-21.333334V192c0-12.8-8.533333-21.333333-21.333333-21.333333z" fill="#B2EBF2" /><path d="M618.666667 170.666667H277.333333c-12.8 0-21.333333 8.533333-21.333333 21.333333v213.333333c0 12.8 8.533333 21.333333 21.333333 21.333334h341.333334c12.8 0 21.333333-8.533333 21.333333-21.333334V192c0-12.8-8.533333-21.333333-21.333333-21.333333z" fill="#B2EBF2" /><path d="M469.333333 426.666667l100.266667-121.6-149.333333 121.6z" fill="#F44336" /><path d="M298.666667 294.4l-29.866667-29.866667c6.4-6.4 10.666667-10.666667 17.066667-14.933333l27.733333 34.133333c-6.4 2.133333-10.666667 6.4-14.933333 10.666667z m298.666666 0c-4.266667-4.266667-8.533333-8.533333-14.933333-12.8l25.6-34.133333c6.4 4.266667 12.8 10.666667 17.066667 14.933333L597.333333 294.4z m-234.666666-42.666667l-17.066667-38.4c6.4-2.133333 14.933333-6.4 21.333333-8.533333l12.8 40.533333c-6.4 2.133333-10.666667 4.266667-17.066666 6.4z m168.533333 0l-19.2-6.4 12.8-40.533333c6.4 2.133333 14.933333 4.266667 21.333333 8.533333l-14.933333 38.4z m-93.866667-17.066666l-2.133333-42.666667h23.466667l-2.133334 42.666667h-19.2zM490.666667 426.666667h-85.333334c0-23.466667 19.2-42.666667 42.666667-42.666667s42.666667 19.2 42.666667 42.666667z" fill="#455A64" /></svg>