<?xml version="1.0" encoding="iso-8859-1"?>
<!-- Uploaded to: SVG Repo, www.svgrepo.com, Generator: SVG Repo Mixer Tools -->
<svg fill="#000000" height="800px" width="800px" version="1.1" id="Layer_1" xmlns="http://www.w3.org/2000/svg" xmlns:xlink="http://www.w3.org/1999/xlink" 
	 viewBox="0 0 511.682 511.682" xml:space="preserve">
<g>
	<g>
		<g>
			<path d="M107.787,275.816c5.524-90.256,77.761-162.484,168.017-168.008c11.39-0.683,20.3-10.294,20.3-21.854v-64
				c0-6.036-2.416-11.659-6.791-15.827S278.93-0.269,272.84,0.028C124.558,7.277,7.274,124.552,0.025,272.843
				c-0.287,6.09,1.94,12.099,6.117,16.483c4.159,4.365,9.773,6.773,15.809,6.773h63.973
				C97.493,296.098,107.087,287.188,107.787,275.816z"/>
			<path d="M278.138,179.329c-54.479,0-98.807,44.328-98.807,98.807c0,54.479,44.328,98.807,98.807,98.807
				c54.479,0,98.807-44.328,98.807-98.807C376.945,223.658,332.616,179.329,278.138,179.329z M278.138,206.277
				c4.958,0,8.982,4.024,8.982,8.982c0,4.958-4.024,8.982-8.982,8.982s-8.982-4.024-8.982-8.982
				C269.155,210.301,273.179,206.277,278.138,206.277z M215.261,287.119c-4.958,0-8.982-4.024-8.982-8.982s4.024-8.982,8.982-8.982
				c4.958,0,8.982,4.024,8.982,8.982S220.219,287.119,215.261,287.119z M278.138,349.996c-4.958,0-8.982-4.024-8.982-8.982
				c0-4.958,4.024-8.982,8.982-8.982s8.982,4.024,8.982,8.982C287.12,345.972,283.096,349.996,278.138,349.996z M278.138,314.066
				c-19.815,0-35.93-16.115-35.93-35.93c0-19.815,16.115-35.93,35.93-35.93c19.815,0,35.93,16.115,35.93,35.93
				C314.068,297.952,297.953,314.066,278.138,314.066z M341.015,287.119c-4.958,0-8.982-4.024-8.982-8.982s4.024-8.982,8.982-8.982
				c4.958,0,8.982,4.024,8.982,8.982S345.973,287.119,341.015,287.119z"/>
			<path d="M278.138,260.171c-9.908,0-17.965,8.057-17.965,17.965s8.057,17.965,17.965,17.965s17.965-8.057,17.965-17.965
				S288.045,260.171,278.138,260.171z"/>
			<path d="M314.068,47.431v38.517c0,21.055-16.33,38.535-37.178,39.801c-81.21,4.958-146.198,69.946-151.175,151.157
				c-1.276,20.848-18.764,37.16-39.783,37.16H47.432C64.661,426.805,161.294,511.68,278.138,511.68
				c128.781,0,233.544-104.771,233.544-233.544C511.682,161.292,426.806,64.659,314.068,47.431z M278.138,394.908
				c-64.386,0-116.772-52.386-116.772-116.772s52.386-116.772,116.772-116.772S394.91,213.75,394.91,278.136
				S342.524,394.908,278.138,394.908z"/>
		</g>
	</g>
</g>
</svg>