<?xml version="1.0" encoding="iso-8859-1"?>
<!-- Uploaded to: SVG Repo, www.svgrepo.com, Generator: SVG Repo Mixer Tools -->
<svg height="800px" width="800px" version="1.1" id="Layer_1" xmlns="http://www.w3.org/2000/svg" xmlns:xlink="http://www.w3.org/1999/xlink" 
	 viewBox="0 0 512 512" xml:space="preserve">
<polygon style="fill:#9DB0B3;" points="298.746,8.017 469.769,161.937 469.769,204.693 298.746,93.528 "/>
<polygon style="fill:#CED7D9;" points="298.746,71.276 298.746,93.528 469.769,204.693 469.769,184.726 "/>
<polygon style="fill:#3C6168;" points="113.471,8.017 93.518,8.017 42.211,84.977 69.42,74.094 "/>
<path style="fill:#EC2620;" d="M277.501,463.982C262.768,411.528,250.097,340.03,255.991,256
	c4.645-66.232,19.504-121.422,34.205-162.472c-22.803,0-45.606,0-68.409,0c-14.701,41.05-29.559,96.24-34.205,162.472
	c-7.571,107.937,15.488,195.209,34.205,247.983h119.716L277.501,463.982z"/>
<path style="fill:#C21C23;" d="M206.162,256c4.645-66.232,19.504-121.422,34.205-162.472c-6.193,0-12.386,0-18.58,0
	c-14.701,41.05-29.559,96.24-34.205,162.472c-7.571,107.937,15.488,195.209,34.205,247.983h18.58
	C221.649,451.209,198.591,363.937,206.162,256z"/>
<path style="fill:#54747B;" d="M298.746,8.017h-76.96H93.518l-51.307,76.96l85.511-34.205l94.063,42.756h76.96
	c23.613,0,42.756-19.143,42.756-42.756S322.36,8.017,298.746,8.017z M238.888,67.875c-9.446,0-17.102-7.658-17.102-17.102
	s7.656-17.102,17.102-17.102s17.102,7.658,17.102,17.102S248.334,67.875,238.888,67.875z"/>
<path d="M475.132,155.978L348.794,42.275C344.737,18.312,323.846,0,298.746,0H170.479c-4.427,0-8.017,3.588-8.017,8.017
	s3.589,8.017,8.017,8.017h128.267c19.155,0,34.739,15.583,34.739,34.739S317.9,85.511,298.746,85.511h-75.224l-11.869-5.395
	c4.623-2.83,9.151-5.597,13.563-8.288c3.938,2.565,8.631,4.063,13.672,4.063c13.851,0,25.119-11.268,25.119-25.119
	s-11.268-25.119-25.119-25.119c-13.851,0-25.119,11.268-25.119,25.119c0,2.938,0.512,5.757,1.443,8.38
	c-5.615,3.428-12.851,7.852-21.169,12.959l-63.002-28.638c-1.99-0.905-4.265-0.956-6.295-0.145L63.2,67.947l34.609-51.914h39.198
	c4.427,0,8.017-3.588,8.017-8.017S141.435,0,137.007,0H93.518c-2.681,0-5.184,1.339-6.67,3.57L35.542,80.53
	c-1.958,2.937-1.731,6.923,0.547,9.619c2.203,2.608,5.929,3.535,9.101,2.271l82.333-32.934l50.055,22.752
	c-49.892,30.76-120.327,74.827-129.549,84.047c-7.974,7.975-12.366,18.577-12.366,29.855s4.392,21.88,12.366,29.854
	c7.974,7.975,18.577,12.367,29.855,12.367s21.88-4.392,29.855-12.366c9.109-9.109,60.502-74.238,103.079-128.648l0.99,0.45
	c-17.62,51.101-28.468,104.093-32.223,157.64c-5.967,85.055,5.691,169.579,34.646,251.223c1.135,3.199,4.161,5.337,7.556,5.337
	h119.716c3.481,0,6.639-2.334,7.661-5.661c1.055-3.432-0.367-7.25-3.412-9.154l-61.362-38.351
	c-18.294-66.404-25.16-134.443-20.401-202.273c1.461-20.832,4.054-41.833,7.708-62.418c0.774-4.359-2.134-8.521-6.492-9.294
	c-4.36-0.766-8.521,2.134-9.294,6.492c-3.751,21.138-6.413,42.704-7.914,64.098c-1.826,26.023-1.98,52.074-0.484,78.055h-17.173
	c-4.427,0-8.017,3.588-8.017,8.017c0,4.428,3.589,8.017,8.017,8.017h18.306c0.269,3.208,0.565,6.414,0.885,9.62h-19.192
	c-4.427,0-8.017,3.588-8.017,8.017s3.589,8.017,8.017,8.017h20.997c0.405,3.209,0.841,6.416,1.298,9.62h-22.295
	c-4.427,0-8.017,3.588-8.017,8.017s3.589,8.017,8.017,8.017h24.781c0.542,3.209,1.119,6.416,1.712,9.62h-17.942
	c-4.427,0-8.017,3.588-8.017,8.017s3.589,8.017,8.017,8.017h21.122c2.819,13.276,6.075,26.501,9.771,39.661
	c0.54,1.922,1.776,3.572,3.47,4.63l40.297,25.186h-86.074c-26.847-77.899-37.578-158.412-31.897-239.406
	c3.694-52.662,14.416-104.786,31.88-155.015h51.462c-6.5,19.257-12.083,38.914-16.635,58.586c-0.998,4.313,1.689,8.618,6.003,9.617
	c4.312,0.999,8.618-1.689,9.618-6.003c4.839-20.912,10.889-41.806,17.978-62.199h0.487l28.564,18.567v16.172
	c0,4.428,3.589,8.017,8.017,8.017c4.427,0,8.017-3.588,8.017-8.017v-5.751l9.62,6.253v16.6c0,4.428,3.589,8.017,8.017,8.017
	s8.017-3.588,8.017-8.017v-6.178l9.62,6.253v17.027c0,4.428,3.589,8.017,8.017,8.017s8.017-3.588,8.017-8.017v-6.606l9.637,6.265
	c-0.005,0.114-0.017,0.227-0.017,0.342v17.102c0,4.428,3.589,8.017,8.017,8.017c4.427,0,8.017-3.588,8.017-8.017v-7.033l9.659,6.278
	c-0.023,0.249-0.038,0.5-0.038,0.756v17.102c0,4.428,3.589,8.017,8.017,8.017c4.427,0,8.017-3.588,8.017-8.017v-7.461l21.819,14.182
	c5.243,3.409,12.385-0.494,12.385-6.721V161.94C477.786,159.665,476.821,157.499,475.132,155.978z M238.888,41.687
	c5.01,0,9.086,4.076,9.086,9.086s-4.076,9.086-9.086,9.086c-0.187,0-0.37-0.017-0.555-0.028c0.102-1.583-0.259-3.212-1.146-4.671
	c-1.601-2.635-4.479-4.013-7.357-3.833c-0.011-0.184-0.028-0.367-0.028-0.554C229.802,45.763,233.878,41.687,238.888,41.687z
	 M96.401,214.659c-10.096,10.095-26.94,10.095-37.035-0.001c-10.096-10.095-10.094-26.939,0-37.034
	c7.569-7.569,75.549-50.329,135.8-87.39l0.634,0.289C139.044,163.021,102.918,208.142,96.401,214.659z M461.752,189.921
	L319.168,97.242c14.184-6.258,24.984-18.818,28.824-34.117l113.76,102.383V189.921z"/>
<path d="M299.815,58.789c4.427,0,8.017-3.588,8.017-8.017s-3.589-8.017-8.017-8.017h-1.069c-4.427,0-8.017,3.588-8.017,8.017
	s3.589,8.017,8.017,8.017H299.815z"/>
</svg>