<?xml version="1.0" encoding="utf-8"?><!-- Uploaded to: SVG Repo, www.svgrepo.com, Generator: SVG Repo Mixer Tools -->
<svg width="800px" height="800px" viewBox="0 0 400 400" fill="none" xmlns="http://www.w3.org/2000/svg">
<path d="M152.163 332.967C155.064 310.893 152.265 287.939 156.462 265.996C157.067 262.831 161.284 243.493 159.839 240.615C158.228 237.404 154.743 234.517 152.777 231.44C142.788 215.807 115.101 174.923 111.018 158.659C110.257 155.625 133.846 122.091 136.503 119.822C140.304 116.578 149.993 98.8479 153.698 98.1101C161.793 96.4976 192.428 109.203 195.764 115.846C198.794 121.883 202.575 133.453 199.756 140.005C195.462 149.983 168.276 150.003 159.532 148.262" stroke="#000000" stroke-opacity="0.9" stroke-width="16" stroke-linecap="round" stroke-linejoin="round"/>
<path d="M159.418 95.2555C160.797 90.467 163.345 86.1861 165.561 81.7592C167.682 77.5224 170.868 74.8204 174.469 71.9436C176.9 70.0009 179.311 67.8387 182.148 66.4222C205.486 54.7689 217.686 71.1245 204.263 92.1881C203.486 93.4078 199.794 102.004 198.427 102.004C196.53 102.004 204.309 90.1206 205.185 89.1207C225.005 66.5004 252.009 89.0063 240.508 114.273C233.817 128.972 220.248 146.625 207.335 156.297C205.261 157.85 201.729 156.623 199.656 155.069" stroke="#000000" stroke-opacity="0.9" stroke-width="16" stroke-linecap="round" stroke-linejoin="round"/>
<path d="M248.972 104.649C253.487 103.328 258.419 103.8 262.786 105.269C280.122 111.098 271.105 138.227 264.014 149.554C256.616 161.369 244.178 173.206 231.473 178.974C226.093 181.417 207.91 173.866 213.668 169.993" stroke="#000000" stroke-opacity="0.9" stroke-width="16" stroke-linecap="round" stroke-linejoin="round"/>
<path d="M276.353 127.492C281.047 128.762 285.389 132.995 287.797 137.283C289.384 140.108 288.797 143.409 289.034 146.462C291.216 174.517 280.634 186.765 255.066 192.44" stroke="#000000" stroke-opacity="0.9" stroke-width="16" stroke-linecap="round" stroke-linejoin="round"/>
<path d="M280.324 187.718C280.399 193.645 281.924 204.558 280.324 210.174C275.768 226.156 271.169 239.184 253.28 244.065C242.247 247.075 229.741 244.675 218.465 244.675" stroke="#000000" stroke-opacity="0.9" stroke-width="16" stroke-linecap="round" stroke-linejoin="round"/>
<path d="M246.524 246.762C247.175 276.981 242.713 307.872 249.164 337.69" stroke="#000000" stroke-opacity="0.9" stroke-width="16" stroke-linecap="round" stroke-linejoin="round"/>
<path opacity="0.503384" d="M149.973 161.312C168.199 151.595 194.278 159.378 207.975 174.453C214.141 181.24 217.503 194.765 219.39 203.182C220.16 206.613 223.484 213.909 221.242 217.241" stroke="#000000" stroke-opacity="0.9" stroke-width="16" stroke-linecap="round" stroke-linejoin="round"/>
</svg>