<?xml version="1.0" encoding="iso-8859-1"?>
<!-- Uploaded to: SVG Repo, www.svgrepo.com, Generator: SVG Repo Mixer Tools -->
<!DOCTYPE svg PUBLIC "-//W3C//DTD SVG 1.1//EN" "http://www.w3.org/Graphics/SVG/1.1/DTD/svg11.dtd">
<svg fill="#000000" version="1.1" id="Capa_1" xmlns="http://www.w3.org/2000/svg" xmlns:xlink="http://www.w3.org/1999/xlink" 
	 width="800px" height="800px" viewBox="0 0 97.352 97.353"
	 xml:space="preserve">
<g>
	<g>
		<path d="M86.92,67.888c-0.278-2.203-1.305-3.969-3.27-5.104c-2.12-1.228-3.57-3.083-4.903-5.078
			c-1.143-1.708-2.373-3.355-3.546-5.042c-0.139-0.199-0.266-0.516-0.208-0.727c0.741-2.719-0.048-5.231-0.931-7.76
			c-1.066-3.056-2.28-6.09-3.002-9.232c-0.957-4.168-0.879-8.415,0.305-12.581c0.074-0.261,0.163-0.518,0.263-0.793
			c0.155-0.434,0.658-0.543,1.125-0.247c1.756,1.117,3.486,2.178,5.113,3.381c0.55,0.406,0.786,1.33,1.006,2.065
			c0.413,1.389,2.463,2.884,3.896,2.661c0.393-0.061,0.768-0.342,1.113-0.578c0.449-0.308,0.827-0.732,1.296-1.002
			c1.33-0.766,1.515-1.098,0.977-2.562c-1.133-3.082-2.312-6.146-3.477-9.216c-0.521-1.369-1.021-2.744-1.578-4.098
			c-0.578-1.406-1.189-2.798-1.805-4.218c-0.221-0.507,0.018-0.974,0.527-1.043c0.513-0.069,0.892-0.192,0.847-0.275
			C80.624,6.356,81,6.119,81.511,5.906c0.021-0.009,0.044-0.018,0.065-0.028c0.512-0.211,0.479-0.341-0.07-0.289
			c-0.13,0.014-0.258,0.027-0.384,0.038c-0.551,0.052-0.584-0.086-0.095-0.341c1.211-0.631,2.269-1.42,2.913-2.756
			c0.24-0.497,0.069-0.589-0.271-0.155c-0.321,0.407-0.613,0.766-0.966,1.053c-0.339,0.278-0.732,0.49-1.162,0.709
			c-0.492,0.25-0.785,0.01-0.88-0.534c-0.133-0.775-0.614-1.283-1.222-1.73c-0.445-0.328-0.627-0.166-0.371,0.314
			c0.179,0.333,0.312,0.643,0.274,0.931c-0.038,0.29-0.486,0.556-0.756,0.84c-0.38,0.4-0.914,0.283-0.914-0.269
			c0-0.288,0-0.559,0-0.82c0-0.552,0.13-1.043,0.004-1.095s-0.023,0.369-0.188,0.897c-0.25,0.809-0.941,1.012-1.861,0.941
			c-0.425-0.033-0.851-0.254-1.205-0.508c-0.877-0.627-1.716-1.285-2.57-1.942c-0.438-0.337-0.844-0.565-0.915-0.512
			c-0.07,0.053,0.006,0.524,0.166,1.052c0.007,0.021,0.015,0.042,0.021,0.062c0.16,0.528-0.11,0.759-0.607,0.517
			c-1.177-0.576-2.319-1.134-3.562-1.742c-0.496-0.243-0.64-0.115-0.318,0.285c0.321,0.4,0.154,0.59-0.372,0.423
			c-1.082-0.342-2.188-0.692-3.3-1.044c-0.527-0.167-0.972-0.247-0.99-0.18C61.954,0.09,62.36,0.295,62.88,0.48
			c1.153,0.411,2.332,1.83,3.613,2.287c0.521,0.185,0.497,0.286-0.051,0.218c-1.942-0.242-3.666-1.512-5.395-1.556
			c-2.276-0.057-4.488,0.48-6.505,1.593c-0.282,0.156-0.539,0.361-0.787,0.579c-0.407,0.356-0.338,0.438,0.159,0.197
			c0.958-0.466,1.953-0.843,3.136-0.731c0.55,0.052,0.542,0.307,0.004,0.43c-0.715,0.164-1.346,0.305-1.947,0.526
			c-0.536,0.197-1.047,0.463-1.566,0.74C53.053,5.022,52.747,5,52.858,4.717c0.112-0.282,0.112-0.463,0-0.405
			c-0.075,0.038-0.142,0.081-0.175,0.142c-1.454,2.675-3.814,4.597-5.734,6.884c-0.441,0.527-1.144,0.833-1.718,1.252
			c-1.228,0.897-2.39,1.857-3.251,3.043c-0.325,0.447-0.092,0.788,0.456,0.72c0.717-0.089,1.437-0.178,2.156-0.267
			c0.548-0.068,1.017-0.011,1.047,0.126c0.03,0.138-0.371,0.385-0.897,0.553c-0.215,0.069-0.434,0.139-0.657,0.21
			c-0.526,0.168-0.691,0.396-0.371,0.508c0.321,0.113,0.194,0.43-0.282,0.71c-1.678,0.986-3.337,1.96-5.238,3.076
			c-0.132,0.077-0.3,0.142-0.457,0.193c-0.262,0.084-0.08,0.341,0.468,0.414c0.883,0.118,2.116,0.087,2.974,0.041
			c0.551-0.029,1.014-0.002,1.033,0.08s-0.417,0.207-0.914,0.447c-0.565,0.273-1.131,0.671-1.696,0.945
			c-0.497,0.24-1.364,0.485-1.897,0.45c-0.533-0.035-0.753,0.113-0.337,0.477c0.833,0.727,2.225,0.611,3.158,0.419
			c0.541-0.111,0.976-0.208,0.99-0.143c0.014,0.065-0.37,0.328-0.857,0.587c-0.129,0.068-0.258,0.137-0.39,0.207
			c-0.487,0.259-1.305,0.629-1.846,0.741c-0.629,0.13-1.475,0.218-2.249,0.008c-0.533-0.144-0.83,0.032-0.52,0.489
			c0.778,1.146,3.163,3.189,10.46,5.076c0.535,0.138,0.523,0.204-0.025,0.14c-1.386-0.162-3.908-0.529-5.532-1.192
			c-0.512-0.209-0.676-0.059-0.322,0.365c0.724,0.867,1.633,1.418,2.303,1.738c0.498,0.238,0.49,0.282-0.055,0.195
			c-1.996-0.317-3.864-0.441-3.864-0.441c-1.044,0-1.877,0.004-2.709-0.001c-4.695-0.025-8.548,1.748-11.44,5.463
			c-0.512,0.658-1.05,0.871-1.85,0.996c-4.891,0.765-9.364,2.573-13.298,5.62c-0.433,0.335-0.816,0.757-1.15,1.194
			c-0.966,1.263-0.888,2.072,0.128,3.28c1.374,1.635,2.738,3.281,4.029,4.981c0.494,0.649,0.846,1.435,1.14,2.204
			c0.466,1.218,0.432,1.954-0.196,2.739c-0.344,0.433-0.235,0.678,0.245,0.405c1.114-0.63,1.304-2.108,0.598-4.562
			c-0.153-0.531,0.116-0.791,0.603-0.53c2.956,1.591,5.885,5.122,6.835,8.237c0.161,0.528,0.5,0.586,0.579,0.038
			c0.097-0.665-0.14-1.623-0.919-4.469c-0.146-0.533-0.209-1.007-0.141-1.06c0.068-0.054,0.395,0.261,0.729,0.701
			c0.443,0.585,0.888,1.17,1.331,1.755c0.333,0.439,0.704,0.356,0.724-0.195c0.04-1.106-0.238-2.212-0.938-3.133
			c-1.061-1.398-2.387-2.603-3.653-3.835c-0.704-0.687-1.586-1.195-2.271-1.898c-0.994-1.021-1.091-2.037-0.105-3.056
			c1.101-1.138,2.331-2.152,3.538-3.187c0.419-0.36,0.828-0.607,0.92-0.546c0.091,0.061,0.101,0.532,0.021,1.053
			c-0.048,0.315-0.096,0.629-0.144,0.944c-0.666,4.393,0.963,7.943,3.88,11.124c2.053,2.238,3.993,4.593,5.815,7.022
			c1.132,1.509,2.053,3.205,2.875,4.91c0.574,1.188,0.928,2.515,1.185,3.817c0.274,1.387,0.798,2.521,1.952,3.39
			c1.326,0.997,2.688,1.987,3.841,3.17c1.059,1.086,1.984,2.353,2.74,3.671c0.722,1.26,1.39,2.44,2.766,3.127
			c1.017,0.506,1.367,1.456,1.253,2.604c-0.074,0.74-0.134,1.514-0.003,2.235c0.316,1.742,2.083,2.737,3.793,2.244
			c1.057-0.305,1.612-0.98,1.551-2.087c-0.107-1.881-0.989-3.413-2.327-4.663c-0.909-0.85-1.708-1.689-2.115-2.932
			c-0.231-0.707-0.852-1.322-1.398-1.88c-0.748-0.761-1.585-1.435-2.397-2.13c-1.633-1.396-2.721-3.116-3.498-5.135
			c-0.509-1.324-1.471-2.473-2.226-3.702c-0.391-0.636-0.962-1.231-1.128-1.923c-0.814-3.379-1.528-6.783-2.255-10.184
			c-0.045-0.214-0.042-0.437-0.031-0.706c0.016-0.392,0.365-0.422,0.816-0.104c1.866,1.315,3.913,2.162,5.057,4.353
			c1.689,3.237,3.46,6.407,4.156,10.038c0.118,0.616,0.06,1.266,0.163,1.886c0.129,0.771,0.216,1.588,0.545,2.278
			c0.553,1.162,1.168,2.33,1.96,3.338c2.427,3.087,3.704,6.693,4.911,10.344c0.482,1.46,1.052,2.769,2.625,3.47
			c0.403,0.18,0.627,1.121,0.653,1.724c0.085,1.893,0.067,1.974,1.961,2.232c0.976,0.133,1.973,0.201,2.955,0.165
			c1.327-0.048,1.6-0.517,0.841-1.637c-0.746-1.103-1.602-2.182-2.602-3.05c-1.283-1.112-2.319-2.329-3.055-3.87
			c-0.969-2.035-2.198-3.953-3.078-6.022c-0.669-1.573-1.003-3.294-1.418-4.966c-0.312-1.261-0.554-2.543-0.766-3.825
			c-0.262-1.59-0.585-3.185-0.655-4.788c-0.096-2.169-0.047-4.344-0.032-6.604c0.004-0.553,0.45-1.039,1-1.088
			c1.048-0.093,2.138-0.188,3.229-0.265c0.156-0.011,0.354,0.127,0.485,0.249c1.779,1.673,3.542,3.365,5.327,5.031
			c0.869,0.81,1.701,1.698,2.69,2.332c1.847,1.185,2.21,3.146,2.858,4.968c0.085,0.24-0.062,0.636-0.225,0.875
			c-0.34,0.499-0.704,0.982-1.073,1.465c-0.335,0.439-0.934,0.491-1.37,0.154c-1.29-0.992-1.861-0.802-3.298,0.596
			c-0.697,0.681-1.302,1.495-1.797,2.338c-0.482,0.82-0.142,1.466,0.81,1.669c0.46,0.099,0.941,0.095,1.416,0.124
			c1.378,0.085,2.761,0.131,4.136,0.255c1.932,0.174,2.705-0.319,3.151-2.191c0.434-1.816,0.887-3.571,2.244-5.017
			c0.971-1.033,0.575-4.157-0.577-5.048c-2.66-2.052-4.124-4.947-5.851-7.78c-0.287-0.473-0.164-1.11,0.283-1.435
			c0.942-0.682,1.854-1.345,2.785-1.983c0.511-0.352,0.988-0.334,1.412,0.252c0.297,0.407,0.692,0.787,1.125,1.047
			c3.276,1.973,6.507,4.043,9.894,5.81c1.697,0.885,2.796,2.005,3.852,3.603c1.918,2.905,2.241,6.079,2.607,9.341
			c0.087,0.772,0.396,1.52,0.713,2.332c0.2,0.515,0.131,1.044-0.141,1.16c-0.157,0.066-0.329,0.13-0.507,0.161
			c-0.875,0.154-1.434,0.661-1.366,1.512c0.113,1.437,0.218,2.916,0.653,4.272c0.348,1.089,1.347,1.786,2.633,1.574
			c1.202-0.198,1.938-1.043,2.045-2.176c0.13-1.4-0.036-2.825-0.02-4.238c0.012-0.93,0.163-1.857,0.174-2.787
			c0.009-0.841,0.118-1.766-0.18-2.509C88.444,74.167,87.331,71.139,86.92,67.888z"/>
	</g>
</g>
</svg>