<?xml version="1.0" encoding="utf-8"?><!-- Uploaded to: SVG Repo, www.svgrepo.com, Generator: SVG Repo Mixer Tools -->
<svg fill="#000000" width="800px" height="800px" viewBox="0 0 24 24" id="note-book" data-name="Flat Color" xmlns="http://www.w3.org/2000/svg" class="icon flat-color"><rect id="primary" x="3" y="2" width="19" height="20" rx="2" style="fill: rgb(0, 0, 0);"></rect><path id="secondary" d="M5,17H3a1,1,0,0,1,0-2H5a1,1,0,0,1,0,2Zm0-4H3a1,1,0,0,1,0-2H5a1,1,0,0,1,0,2ZM5,9H3A1,1,0,0,1,3,7H5A1,1,0,0,1,5,9ZM17,7H10A1,1,0,0,0,9,8v2a1,1,0,0,0,1,1h7a1,1,0,0,0,1-1V8A1,1,0,0,0,17,7Z" style="fill: rgb(44, 169, 188);"></path></svg>