<?xml version="1.0" encoding="iso-8859-1"?>
<!-- Uploaded to: SVG Repo, www.svgrepo.com, Generator: SVG Repo Mixer Tools -->
<svg version="1.1" id="Layer_1" xmlns="http://www.w3.org/2000/svg" xmlns:xlink="http://www.w3.org/1999/xlink" 
	 viewBox="0 0 512 512" xml:space="preserve">
<g>
	<polygon style="fill:#FFFFFF;" points="411.826,133.565 411.826,100.174 333.913,100.174 333.913,133.565 300.522,133.565 
		300.522,211.478 333.913,211.478 333.913,244.87 411.826,244.87 411.826,211.478 445.217,211.478 445.217,133.565 	"/>
	<polygon style="fill:#FFFFFF;" points="222.609,0 155.826,0 155.826,33.391 122.435,33.391 122.435,100.174 155.826,100.174 
		155.826,133.565 222.609,133.565 222.609,100.174 256,100.174 256,33.391 222.609,33.391 	"/>
	<polygon style="fill:#FFFFFF;" points="389.565,311.652 389.565,345.043 345.043,345.043 345.043,311.652 311.652,311.652 
		311.652,278.261 0,278.261 0,512 133.565,512 133.565,478.609 166.957,478.609 166.957,512 345.043,512 345.043,478.609 
		411.826,478.609 411.826,445.217 445.217,445.217 445.217,411.826 478.609,411.826 478.609,378.435 512,378.435 512,311.652 	"/>
</g>
<rect y="278.261" style="fill:#57A4FF;" width="133.565" height="233.739"/>
<g>
	<polygon style="fill:#FFDE46;" points="256,33.391 222.609,33.391 222.609,0 155.826,0 155.826,33.391 122.435,33.391 
		122.435,100.174 155.826,100.174 155.826,133.565 222.609,133.565 222.609,100.174 256,100.174 	"/>
	<polygon style="fill:#FFDE46;" points="445.217,133.565 411.826,133.565 411.826,100.174 333.913,100.174 333.913,133.565 
		300.522,133.565 300.522,211.478 333.913,211.478 333.913,244.87 411.826,244.87 411.826,211.478 445.217,211.478 	"/>
</g>
<polygon points="211.478,345.043 211.478,378.435 389.565,378.435 389.565,345.043 345.043,345.043 345.043,311.652 
	311.652,311.652 311.652,345.043 "/>
<rect x="345.043" y="445.217" width="66.783" height="33.391"/>
<polygon points="389.565,311.652 389.565,345.043 478.609,345.043 478.609,378.435 512,378.435 512,311.652 "/>
<rect x="445.217" y="378.435" width="33.391" height="33.391"/>
<rect x="411.826" y="411.826" width="33.391" height="33.391"/>
<rect x="166.957" y="478.609" width="178.087" height="33.391"/>
<path d="M133.565,445.217V311.652h178.087v-33.391H0V512h133.565v-33.391h33.391v-33.391H133.565z M33.391,478.609V311.652h66.783
	v166.957H33.391z"/>
<rect x="333.913" y="100.174" width="77.913" height="33.391"/>
<rect x="333.913" y="211.478" width="77.913" height="33.391"/>
<rect x="411.826" y="133.565" width="33.391" height="77.913"/>
<rect x="300.522" y="133.565" width="33.391" height="77.913"/>
<rect x="155.826" width="66.783" height="33.391"/>
<rect x="155.826" y="100.174" width="66.783" height="33.391"/>
<rect x="222.609" y="33.391" width="33.391" height="66.783"/>
<rect x="122.435" y="33.391" width="33.391" height="66.783"/>
</svg>