<?xml version="1.0" encoding="iso-8859-1"?>
<!-- Uploaded to: SVG Repo, www.svgrepo.com, Generator: SVG Repo Mixer Tools -->
<svg height="800px" width="800px" version="1.1" id="Layer_1" xmlns="http://www.w3.org/2000/svg" xmlns:xlink="http://www.w3.org/1999/xlink" 
	 viewBox="0 0 512 512" xml:space="preserve">
<circle style="fill:#00447D;" cx="256" cy="256" r="256"/>
<path style="fill:#062964;" d="M257.01,511.988C397.929,511.441,512,397.047,512,256c0-1.989-0.031-3.97-0.076-5.947
	L402.441,140.569l-5.394,1.091l-48.607-48.607l-28.019,16.822l-40.057-40.057l-15.851,30.923l-19.884,9.712l-36.049-36.05
	l-10.043,18.399l26.984,26.984L91.943,185.032l-14.091,20.101l29.268,29.268l-33.854,42.517l42.522,42.522l-19.287,25.553
	l49.705,49.705l-2.189,4.296L257.01,511.988z"/>
<path style="fill:#FFFFFF;" d="M220.67,306.333l89.112-89.11c8.397,2.112,17.66-0.114,24.228-6.68
	c5.92-5.92,8.313-14.033,7.18-21.725l-14.181,14.181l-12.362,1.636l-10.726-10.728l1.636-12.362l14.181-14.181
	c-7.694-1.133-15.805,1.26-21.725,7.18c-6.568,6.568-8.792,15.831-6.682,24.228l-89.112,89.11c-8.397-2.112-17.66,0.114-24.228,6.68
	c-5.922,5.922-8.313,14.033-7.182,21.726l14.181-14.181l12.362-1.636l10.726,10.728l-1.636,12.362l-14.181,14.181
	c7.692,1.133,15.805-1.26,21.725-7.18C220.557,323.994,222.78,314.732,220.67,306.333z"/>
<path style="fill:#E6F3FF;" d="M341.19,188.816l-14.181,14.181l-12.362,1.636l-10.726-10.728l1.636-12.362l14.181-14.181
	c-7.694-1.133-15.805,1.26-21.725,7.18c-6.568,6.568-8.792,15.831-6.682,24.228l-35.904,35.904v36.902l54.355-54.355
	c8.397,2.112,17.66-0.112,24.228-6.68C339.93,204.621,342.321,196.51,341.19,188.816z"/>
<path style="fill:#BDFBFD;" d="M202.212,217.224l89.11,89.11c-2.112,8.397,0.114,17.66,6.68,24.228
	c5.92,5.92,14.033,8.313,21.725,7.18l-14.181-14.181l-1.636-12.362l10.728-10.726l12.362,1.636l14.181,14.181
	c1.133-7.692-1.26-15.805-7.18-21.725c-6.568-6.568-15.831-8.792-24.228-6.682l-89.11-89.11c2.112-8.397-0.114-17.66-6.68-24.228
	c-5.922-5.922-14.033-8.313-21.726-7.18l14.181,14.181l1.636,12.362l-10.728,10.726l-12.362-1.636l-14.181-14.181
	c-1.133,7.692,1.26,15.805,7.18,21.725C184.551,217.11,193.815,219.334,202.212,217.224z"/>
<path style="fill:#00E4ED;" d="M334.003,294.565c-6.568-6.568-15.831-8.792-24.228-6.682l-54.35-54.35v36.902l35.897,35.897
	c-2.112,8.397,0.114,17.66,6.68,24.228c5.92,5.92,14.033,8.313,21.725,7.18l-14.181-14.179l-1.636-12.362l10.728-10.726
	l12.364,1.636l14.181,14.179C342.316,308.596,339.925,300.485,334.003,294.565z"/>
<path style="fill:#FF764C;" d="M438.734,276.916v-48.73h-25.222c-0.776-4.505-1.738-8.945-2.882-13.312l23.519-9.742l-18.647-45.02
	l-24.316,10.071c-2.357-3.725-4.86-7.347-7.506-10.854l18.761-18.761l-34.456-34.457l-19.213,19.213
	c-3.491-2.491-7.087-4.841-10.78-7.051l10.447-25.221l-45.02-18.649l-10.574,25.529c-4.103-0.967-8.263-1.784-12.481-2.429V69.818
	h-48.73v27.686c-4.217,0.645-8.378,1.462-12.479,2.429l-10.574-25.529l-45.02,18.647l10.447,25.221
	c-3.691,2.21-7.289,4.56-10.78,7.051l-19.213-19.211l-34.456,34.457l18.761,18.761c-2.646,3.508-5.151,7.13-7.506,10.855
	l-24.316-10.071l-18.647,45.018l23.519,9.742c-1.145,4.368-2.107,8.809-2.882,13.314H73.266v48.73h24.319
	c0.627,4.686,1.457,9.306,2.481,13.853l-22.213,9.2l18.647,45.02l21.445-8.883c2.446,4.18,5.07,8.242,7.873,12.169l-16.26,16.26
	l34.457,34.457l15.808-15.808c3.937,2.972,8.02,5.761,12.229,8.364l-8.494,20.504l45.02,18.647l8.352-20.166
	c4.818,1.21,9.719,2.21,14.7,2.972v21.778h48.73v-21.78c4.98-0.762,9.883-1.762,14.701-2.972l8.352,20.166l45.02-18.647
	l-8.494-20.504c4.21-2.603,8.292-5.392,12.229-8.364l15.808,15.808l34.457-34.457l-16.26-16.26
	c2.803-3.927,5.427-7.989,7.873-12.169l21.445,8.883l18.647-45.02l-22.214-9.201c1.024-4.548,1.853-9.169,2.481-13.853
	L438.734,276.916L438.734,276.916z M256,374.375c-67.281,0-121.823-54.543-121.823-121.823S188.719,130.729,256,130.729
	s121.823,54.543,121.823,121.823S323.281,374.375,256,374.375z"/>
<path style="fill:#FF450C;" d="M438.734,276.916v-48.73h-25.222c-0.776-4.505-1.738-8.945-2.882-13.314l23.519-9.742l-18.647-45.02
	l-24.316,10.073c-2.357-3.725-4.86-7.346-7.506-10.854l18.761-18.763l-34.456-34.456l-19.213,19.213
	c-3.491-2.491-7.087-4.841-10.78-7.053l10.447-25.221l-45.02-18.647l-10.574,25.529c-4.103-0.969-8.263-1.784-12.481-2.429V69.818
	h-24.938v60.926c0.193,0,0.381-0.016,0.574-0.016c67.281,0,121.823,54.543,121.823,121.823S323.282,374.375,256,374.375
	c-0.193,0-0.381-0.014-0.574-0.016v60.926h24.938v-21.78c4.98-0.762,9.883-1.762,14.701-2.972l8.352,20.166l45.02-18.647
	l-8.494-20.504c4.21-2.603,8.292-5.392,12.229-8.364l15.808,15.808l34.457-34.457l-16.26-16.26
	c2.803-3.927,5.427-7.989,7.873-12.169l21.445,8.883l18.647-45.02l-22.214-9.201c1.024-4.548,1.853-9.169,2.481-13.853
	L438.734,276.916L438.734,276.916z"/>
</svg>