<?xml version="1.0" encoding="iso-8859-1"?>
<!-- Uploaded to: SVG Repo, www.svgrepo.com, Generator: SVG Repo Mixer Tools -->
<svg height="800px" width="800px" version="1.1" id="Layer_1" xmlns="http://www.w3.org/2000/svg" xmlns:xlink="http://www.w3.org/1999/xlink" 
	 viewBox="0 0 512 512" xml:space="preserve">
<g>
	<path style="fill:#666666;" d="M512,256c0,141.383-114.617,256-256,256S0,397.383,0,256S114.617,0,256,0S512,114.617,512,256"/>
	<path style="fill:#B3B3B3;" d="M459.034,256c0,112.137-90.898,203.034-203.034,203.034S52.966,368.137,52.966,256
		S143.863,52.966,256,52.966S459.034,143.863,459.034,256"/>
	<g>
		<path style="fill:#424040;" d="M370.759,185.379c24.876,0,47.307-10.328,63.356-26.88
			c-28.902-52.674-80.481-91.092-141.594-102.197c-6.382,12.209-10.037,26.068-10.037,40.801
			C282.483,145.858,322.004,185.379,370.759,185.379"/>
		<path style="fill:#424040;" d="M457.729,233.209c-7.989-2.375-16.419-3.69-25.176-3.69c-48.755,0-88.276,39.521-88.276,88.276
			c0,37.058,22.863,68.74,55.243,81.823c36.767-36.749,59.516-87.526,59.516-143.616
			C459.035,248.286,458.568,240.695,457.729,233.209"/>
		<path style="fill:#424040;" d="M70.621,220.69c-5.041,0-9.958,0.521-14.769,1.333c-1.863,11.052-2.887,22.396-2.887,33.977
			c0,51.668,19.332,98.798,51.112,134.63c32.159-13.18,54.819-44.765,54.819-81.664C158.897,260.211,119.375,220.69,70.621,220.69"
			/>
		<path style="fill:#424040;" d="M229.517,97.103c0-14.733-3.655-28.593-10.037-40.801
			c-61.113,11.105-112.693,49.523-141.594,102.197c16.049,16.552,38.479,26.88,63.356,26.88
			C189.996,185.379,229.517,145.858,229.517,97.103"/>
		<path style="fill:#424040;" d="M343.429,439.283c-5.402-43.573-42.39-77.347-87.428-77.347c-43.582,0-79.695,31.612-86.89,73.137
			c27.427,14.689,58.633,23.199,91.772,23.843C290.384,458.218,318.332,451.271,343.429,439.283"/>
	</g>
	<path style="fill:#666666;" d="M317.793,256c0,34.127-27.666,61.793-61.793,61.793S194.207,290.127,194.207,256
		s27.666-61.793,61.793-61.793S317.793,221.873,317.793,256"/>
	<g>
		<path style="fill:#B3B3B3;" d="M264.828,229.517c0,4.873-3.955,8.828-8.828,8.828s-8.828-3.955-8.828-8.828
			s3.955-8.828,8.828-8.828S264.828,224.644,264.828,229.517"/>
		<path style="fill:#B3B3B3;" d="M264.828,282.483c0,4.873-3.955,8.828-8.828,8.828s-8.828-3.955-8.828-8.828
			c0-4.873,3.955-8.828,8.828-8.828S264.828,277.61,264.828,282.483"/>
		<path style="fill:#B3B3B3;" d="M282.483,264.828c-4.873,0-8.828-3.955-8.828-8.828s3.955-8.828,8.828-8.828
			c4.873,0,8.828,3.955,8.828,8.828S287.356,264.828,282.483,264.828"/>
		<path style="fill:#B3B3B3;" d="M229.517,264.828c-4.873,0-8.828-3.955-8.828-8.828s3.955-8.828,8.828-8.828
			s8.828,3.955,8.828,8.828S234.39,264.828,229.517,264.828"/>
	</g>
</g>
</svg>